<svg width="163" height="58" viewBox="0 0 163 58" fill="none" xmlns="http://www.w3.org/2000/svg">
<rect width="163" height="58" fill="#363B47" fill-opacity="0.4"/>
<g clip-path="url(#clip0_4686_7764)">
<path d="M41.9986 13C40.2926 13.118 38.2986 14.21 37.1366 15.632C36.0766 16.922 35.2046 18.838 35.5446 20.7C37.4086 20.758 39.3346 19.64 40.4506 18.194C41.4946 16.848 42.2846 14.944 41.9986 13Z" fill="white"/>
<path d="M48.7406 23.7362C47.1026 21.6822 44.8006 20.4902 42.6266 20.4902C39.7566 20.4902 38.5427 21.8642 36.5487 21.8642C34.4927 21.8642 32.9307 20.4942 30.4487 20.4942C28.0107 20.4942 25.4147 21.9842 23.7687 24.5322C21.4548 28.1202 21.8507 34.8662 25.6007 40.6121C26.9427 42.6681 28.7347 44.9801 31.0787 45.0001C33.1647 45.0201 33.7527 43.6621 36.5787 43.6481C39.4046 43.6321 39.9406 45.0181 42.0226 44.9961C44.3686 44.9781 46.2586 42.4161 47.6006 40.3601C48.5626 38.8861 48.9206 38.1441 49.6666 36.4801C44.2406 34.4142 43.3706 26.6982 48.7406 23.7362Z" fill="white"/>
</g>
<path d="M69.125 21H66.8807V13.7273H69.2244C69.9299 13.7273 70.5336 13.8729 71.0355 14.1641C71.5374 14.4529 71.9221 14.8684 72.1896 15.4105C72.4571 15.9503 72.5909 16.5966 72.5909 17.3494C72.5909 18.107 72.456 18.7592 72.1861 19.3061C71.9162 19.8506 71.5232 20.2696 71.0071 20.5632C70.491 20.8544 69.8636 21 69.125 21ZM67.7614 20.2188H69.0682C69.6695 20.2188 70.1679 20.1027 70.5632 19.8707C70.9586 19.6387 71.2533 19.3085 71.4474 18.88C71.6416 18.4515 71.7386 17.9413 71.7386 17.3494C71.7386 16.7623 71.6428 16.2569 71.451 15.8331C71.2592 15.407 70.9728 15.0803 70.5916 14.853C70.2105 14.6233 69.7358 14.5085 69.1676 14.5085H67.7614V20.2188ZM76.1705 21.1136C75.678 21.1136 75.246 20.9964 74.8743 20.7621C74.505 20.5277 74.2161 20.1998 74.0078 19.7784C73.8018 19.357 73.6989 18.8646 73.6989 18.3011C73.6989 17.733 73.8018 17.237 74.0078 16.8132C74.2161 16.3894 74.505 16.0604 74.8743 15.826C75.246 15.5916 75.678 15.4744 76.1705 15.4744C76.6629 15.4744 77.0938 15.5916 77.4631 15.826C77.8348 16.0604 78.1236 16.3894 78.3295 16.8132C78.5379 17.237 78.642 17.733 78.642 18.3011C78.642 18.8646 78.5379 19.357 78.3295 19.7784C78.1236 20.1998 77.8348 20.5277 77.4631 20.7621C77.0938 20.9964 76.6629 21.1136 76.1705 21.1136ZM76.1705 20.3608C76.5445 20.3608 76.8523 20.2649 77.0938 20.0732C77.3352 19.8814 77.514 19.6293 77.63 19.3168C77.746 19.0043 77.804 18.6657 77.804 18.3011C77.804 17.9366 77.746 17.5968 77.63 17.282C77.514 16.9671 77.3352 16.7126 77.0938 16.5185C76.8523 16.3243 76.5445 16.2273 76.1705 16.2273C75.7964 16.2273 75.4886 16.3243 75.2472 16.5185C75.0057 16.7126 74.8269 16.9671 74.7109 17.282C74.5949 17.5968 74.5369 17.9366 74.5369 18.3011C74.5369 18.6657 74.5949 19.0043 74.7109 19.3168C74.8269 19.6293 75.0057 19.8814 75.2472 20.0732C75.4886 20.2649 75.7964 20.3608 76.1705 20.3608ZM80.9716 21L79.3097 15.5455H80.1903L81.3693 19.7216H81.4261L82.5909 15.5455H83.4858L84.6364 19.7074H84.6932L85.8722 15.5455H86.7528L85.0909 21H84.267L83.0739 16.8097H82.9886L81.7955 21H80.9716ZM88.6989 17.7188V21H87.8608V15.5455H88.6705V16.3977H88.7415C88.8693 16.1207 89.0634 15.8982 89.3239 15.7301C89.5843 15.5597 89.9205 15.4744 90.3324 15.4744C90.7017 15.4744 91.0249 15.5502 91.3018 15.7017C91.5788 15.8509 91.7943 16.0781 91.9482 16.3835C92.102 16.6866 92.179 17.0701 92.179 17.5341V21H91.3409V17.5909C91.3409 17.1624 91.2296 16.8286 91.0071 16.5895C90.7846 16.348 90.4792 16.2273 90.0909 16.2273C89.8234 16.2273 89.5843 16.2853 89.3736 16.4013C89.1652 16.5173 89.0007 16.6866 88.88 16.9091C88.7592 17.1316 88.6989 17.4015 88.6989 17.7188ZM94.5485 13.7273V21H93.7104V13.7273H94.5485ZM98.2994 21.1136C97.8069 21.1136 97.3749 20.9964 97.0032 20.7621C96.6339 20.5277 96.3451 20.1998 96.1367 19.7784C95.9308 19.357 95.8278 18.8646 95.8278 18.3011C95.8278 17.733 95.9308 17.237 96.1367 16.8132C96.3451 16.3894 96.6339 16.0604 97.0032 15.826C97.3749 15.5916 97.8069 15.4744 98.2994 15.4744C98.7918 15.4744 99.2227 15.5916 99.592 15.826C99.9637 16.0604 100.252 16.3894 100.458 16.8132C100.667 17.237 100.771 17.733 100.771 18.3011C100.771 18.8646 100.667 19.357 100.458 19.7784C100.252 20.1998 99.9637 20.5277 99.592 20.7621C99.2227 20.9964 98.7918 21.1136 98.2994 21.1136ZM98.2994 20.3608C98.6734 20.3608 98.9812 20.2649 99.2227 20.0732C99.4641 19.8814 99.6429 19.6293 99.7589 19.3168C99.8749 19.0043 99.9329 18.6657 99.9329 18.3011C99.9329 17.9366 99.8749 17.5968 99.7589 17.282C99.6429 16.9671 99.4641 16.7126 99.2227 16.5185C98.9812 16.3243 98.6734 16.2273 98.2994 16.2273C97.9253 16.2273 97.6175 16.3243 97.3761 16.5185C97.1346 16.7126 96.9558 16.9671 96.8398 17.282C96.7238 17.5968 96.6658 17.9366 96.6658 18.3011C96.6658 18.6657 96.7238 19.0043 96.8398 19.3168C96.9558 19.6293 97.1346 19.8814 97.3761 20.0732C97.6175 20.2649 97.9253 20.3608 98.2994 20.3608ZM103.655 21.1278C103.31 21.1278 102.996 21.0627 102.714 20.9325C102.433 20.8 102.209 20.6094 102.043 20.3608C101.877 20.1098 101.795 19.8068 101.795 19.4517C101.795 19.1392 101.856 18.8859 101.979 18.6918C102.102 18.4953 102.267 18.3414 102.473 18.2301C102.679 18.1188 102.906 18.036 103.155 17.9815C103.406 17.9247 103.658 17.8797 103.911 17.8466C104.242 17.804 104.511 17.772 104.717 17.7507C104.925 17.727 105.077 17.688 105.172 17.6335C105.269 17.5791 105.317 17.4844 105.317 17.3494V17.321C105.317 16.9706 105.221 16.6984 105.03 16.5043C104.84 16.3101 104.553 16.2131 104.167 16.2131C103.767 16.2131 103.453 16.3007 103.226 16.4759C102.998 16.651 102.839 16.8381 102.746 17.0369L101.951 16.7528C102.093 16.4214 102.282 16.1634 102.519 15.9787C102.758 15.7917 103.019 15.6615 103.3 15.5881C103.584 15.5123 103.864 15.4744 104.138 15.4744C104.314 15.4744 104.515 15.4957 104.742 15.5384C104.972 15.5786 105.193 15.6626 105.406 15.7905C105.622 15.9183 105.8 16.1113 105.942 16.3693C106.084 16.6274 106.155 16.973 106.155 17.4062V21H105.317V20.2614H105.275C105.218 20.3797 105.123 20.5064 104.991 20.6413C104.858 20.7763 104.682 20.8911 104.461 20.9858C104.241 21.0805 103.973 21.1278 103.655 21.1278ZM103.783 20.375C104.115 20.375 104.394 20.3099 104.621 20.1797C104.851 20.0495 105.024 19.8814 105.14 19.6754C105.258 19.4695 105.317 19.2528 105.317 19.0256V18.2585C105.282 18.3011 105.204 18.3402 105.083 18.3757C104.965 18.4089 104.827 18.4384 104.671 18.4645C104.517 18.4882 104.367 18.5095 104.22 18.5284C104.076 18.545 103.958 18.5592 103.868 18.571C103.651 18.5994 103.447 18.6456 103.258 18.7095C103.071 18.7711 102.919 18.8646 102.803 18.9901C102.689 19.1132 102.633 19.2812 102.633 19.4943C102.633 19.7855 102.74 20.0057 102.956 20.1548C103.174 20.3016 103.449 20.375 103.783 20.375ZM109.745 21.1136C109.29 21.1136 108.889 20.9988 108.541 20.7692C108.193 20.5372 107.921 20.2105 107.724 19.7891C107.528 19.3653 107.429 18.8646 107.429 18.2869C107.429 17.714 107.528 17.2169 107.724 16.7955C107.921 16.3741 108.194 16.0485 108.544 15.8189C108.895 15.5893 109.3 15.4744 109.759 15.4744C110.114 15.4744 110.395 15.5336 110.6 15.652C110.809 15.768 110.967 15.9006 111.076 16.0497C111.188 16.1965 111.274 16.3172 111.336 16.4119H111.407V13.7273H112.245V21H111.435V20.1619H111.336C111.274 20.2614 111.186 20.3868 111.073 20.5384C110.959 20.6875 110.797 20.8213 110.586 20.9396C110.376 21.0556 110.095 21.1136 109.745 21.1136ZM109.858 20.3608C110.194 20.3608 110.479 20.2732 110.711 20.098C110.943 19.9205 111.119 19.6754 111.24 19.3629C111.36 19.0481 111.421 18.6847 111.421 18.2727C111.421 17.8655 111.362 17.5092 111.243 17.2038C111.125 16.8961 110.95 16.657 110.718 16.4865C110.486 16.3137 110.199 16.2273 109.858 16.2273C109.503 16.2273 109.207 16.3184 108.971 16.5007C108.736 16.6806 108.56 16.9257 108.441 17.2358C108.325 17.5436 108.267 17.8892 108.267 18.2727C108.267 18.661 108.327 19.0137 108.445 19.331C108.566 19.6458 108.743 19.8968 108.978 20.0838C109.214 20.2685 109.508 20.3608 109.858 20.3608ZM117.547 17.7188V21H116.708V15.5455H117.518V16.3977H117.589C117.717 16.1207 117.911 15.8982 118.172 15.7301C118.432 15.5597 118.768 15.4744 119.18 15.4744C119.549 15.4744 119.873 15.5502 120.15 15.7017C120.426 15.8509 120.642 16.0781 120.796 16.3835C120.95 16.6866 121.027 17.0701 121.027 17.5341V21H120.189V17.5909C120.189 17.1624 120.077 16.8286 119.855 16.5895C119.632 16.348 119.327 16.2273 118.939 16.2273C118.671 16.2273 118.432 16.2853 118.221 16.4013C118.013 16.5173 117.848 16.6866 117.728 16.9091C117.607 17.1316 117.547 17.4015 117.547 17.7188ZM124.774 21.1136C124.282 21.1136 123.849 20.9964 123.478 20.7621C123.108 20.5277 122.82 20.1998 122.611 19.7784C122.405 19.357 122.302 18.8646 122.302 18.3011C122.302 17.733 122.405 17.237 122.611 16.8132C122.82 16.3894 123.108 16.0604 123.478 15.826C123.849 15.5916 124.282 15.4744 124.774 15.4744C125.266 15.4744 125.697 15.5916 126.067 15.826C126.438 16.0604 126.727 16.3894 126.933 16.8132C127.141 17.237 127.246 17.733 127.246 18.3011C127.246 18.8646 127.141 19.357 126.933 19.7784C126.727 20.1998 126.438 20.5277 126.067 20.7621C125.697 20.9964 125.266 21.1136 124.774 21.1136ZM124.774 20.3608C125.148 20.3608 125.456 20.2649 125.697 20.0732C125.939 19.8814 126.117 19.6293 126.233 19.3168C126.349 19.0043 126.407 18.6657 126.407 18.3011C126.407 17.9366 126.349 17.5968 126.233 17.282C126.117 16.9671 125.939 16.7126 125.697 16.5185C125.456 16.3243 125.148 16.2273 124.774 16.2273C124.4 16.2273 124.092 16.3243 123.851 16.5185C123.609 16.7126 123.43 16.9671 123.314 17.282C123.198 17.5968 123.14 17.9366 123.14 18.3011C123.14 18.6657 123.198 19.0043 123.314 19.3168C123.43 19.6293 123.609 19.8814 123.851 20.0732C124.092 20.2649 124.4 20.3608 124.774 20.3608ZM129.575 21L127.913 15.5455H128.794L129.973 19.7216H130.03L131.194 15.5455H132.089L133.24 19.7074H133.297L134.476 15.5455H135.356L133.694 21H132.871L131.677 16.8097H131.592L130.399 21H129.575Z" fill="#B7BAC7"/>
<path d="M68.2614 41H66.3977L70.5852 29.3636H72.6136L76.8011 41H74.9375L71.6477 31.4773H71.5568L68.2614 41ZM68.5739 36.4432H74.6193V37.9205H68.5739V36.4432ZM78.3452 44.2727V32.2727H80.0043V33.6875H80.1463C80.2448 33.5057 80.3868 33.2955 80.5724 33.0568C80.758 32.8182 81.0156 32.6098 81.3452 32.4318C81.6747 32.25 82.1103 32.1591 82.652 32.1591C83.3565 32.1591 83.9853 32.3371 84.5384 32.6932C85.0914 33.0492 85.5251 33.5625 85.8395 34.233C86.1577 34.9034 86.3168 35.7102 86.3168 36.6534C86.3168 37.5966 86.1596 38.4053 85.8452 39.0795C85.5308 39.75 85.099 40.267 84.5497 40.6307C84.0005 40.9905 83.3736 41.1705 82.669 41.1705C82.1387 41.1705 81.705 41.0814 81.3679 40.9034C81.0346 40.7254 80.7732 40.517 80.5838 40.2784C80.3944 40.0398 80.2486 39.8277 80.1463 39.642H80.044V44.2727H78.3452ZM80.0099 36.6364C80.0099 37.25 80.099 37.7879 80.277 38.25C80.455 38.7121 80.7126 39.0739 81.0497 39.3352C81.3868 39.5928 81.7997 39.7216 82.2884 39.7216C82.7959 39.7216 83.2202 39.5871 83.5611 39.3182C83.902 39.0455 84.1596 38.6761 84.3338 38.2102C84.5118 37.7443 84.6009 37.2197 84.6009 36.6364C84.6009 36.0606 84.5137 35.5436 84.3395 35.0852C84.169 34.6269 83.9115 34.2652 83.5668 34C83.2259 33.7348 82.7997 33.6023 82.2884 33.6023C81.7959 33.6023 81.3793 33.7292 81.0384 33.983C80.7012 34.2367 80.4455 34.5909 80.2713 35.0455C80.0971 35.5 80.0099 36.0303 80.0099 36.6364ZM88.2202 44.2727V32.2727H89.8793V33.6875H90.0213C90.1198 33.5057 90.2618 33.2955 90.4474 33.0568C90.633 32.8182 90.8906 32.6098 91.2202 32.4318C91.5497 32.25 91.9853 32.1591 92.527 32.1591C93.2315 32.1591 93.8603 32.3371 94.4134 32.6932C94.9664 33.0492 95.4001 33.5625 95.7145 34.233C96.0327 34.9034 96.1918 35.7102 96.1918 36.6534C96.1918 37.5966 96.0346 38.4053 95.7202 39.0795C95.4058 39.75 94.974 40.267 94.4247 40.6307C93.8755 40.9905 93.2486 41.1705 92.544 41.1705C92.0137 41.1705 91.58 41.0814 91.2429 40.9034C90.9096 40.7254 90.6482 40.517 90.4588 40.2784C90.2694 40.0398 90.1236 39.8277 90.0213 39.642H89.919V44.2727H88.2202ZM89.8849 36.6364C89.8849 37.25 89.974 37.7879 90.152 38.25C90.33 38.7121 90.5876 39.0739 90.9247 39.3352C91.2618 39.5928 91.6747 39.7216 92.1634 39.7216C92.6709 39.7216 93.0952 39.5871 93.4361 39.3182C93.777 39.0455 94.0346 38.6761 94.2088 38.2102C94.3868 37.7443 94.4759 37.2197 94.4759 36.6364C94.4759 36.0606 94.3887 35.5436 94.2145 35.0852C94.044 34.6269 93.7865 34.2652 93.4418 34C93.1009 33.7348 92.6747 33.6023 92.1634 33.6023C91.6709 33.6023 91.2543 33.7292 90.9134 33.983C90.5762 34.2367 90.3205 34.5909 90.1463 35.0455C89.9721 35.5 89.8849 36.0303 89.8849 36.6364ZM108.812 32.4205C108.752 31.8826 108.502 31.4659 108.062 31.1705C107.623 30.8712 107.07 30.7216 106.403 30.7216C105.926 30.7216 105.513 30.7973 105.165 30.9489C104.816 31.0966 104.545 31.3011 104.352 31.5625C104.163 31.8201 104.068 32.1136 104.068 32.4432C104.068 32.7197 104.133 32.9583 104.261 33.1591C104.394 33.3598 104.566 33.5284 104.778 33.6648C104.994 33.7973 105.225 33.9091 105.472 34C105.718 34.0871 105.955 34.1591 106.182 34.2159L107.318 34.5114C107.689 34.6023 108.07 34.7254 108.46 34.8807C108.85 35.036 109.212 35.2405 109.545 35.4943C109.879 35.7481 110.148 36.0625 110.352 36.4375C110.561 36.8125 110.665 37.2614 110.665 37.7841C110.665 38.4432 110.494 39.0284 110.153 39.5398C109.816 40.0511 109.326 40.4545 108.682 40.75C108.042 41.0455 107.267 41.1932 106.358 41.1932C105.487 41.1932 104.733 41.0549 104.097 40.7784C103.46 40.5019 102.962 40.1098 102.602 39.6023C102.242 39.0909 102.044 38.4848 102.006 37.7841H103.767C103.801 38.2045 103.938 38.5549 104.176 38.8352C104.419 39.1117 104.727 39.3182 105.102 39.4545C105.481 39.5871 105.896 39.6534 106.347 39.6534C106.843 39.6534 107.284 39.5758 107.67 39.4205C108.061 39.2614 108.367 39.0417 108.591 38.7614C108.814 38.4773 108.926 38.1458 108.926 37.767C108.926 37.4223 108.828 37.1402 108.631 36.9205C108.438 36.7008 108.174 36.5189 107.841 36.375C107.511 36.2311 107.138 36.1042 106.722 35.9943L105.347 35.6193C104.415 35.3655 103.676 34.9924 103.131 34.5C102.589 34.0076 102.318 33.3561 102.318 32.5455C102.318 31.875 102.5 31.2898 102.864 30.7898C103.227 30.2898 103.72 29.9015 104.341 29.625C104.962 29.3447 105.663 29.2045 106.443 29.2045C107.231 29.2045 107.926 29.3428 108.528 29.6193C109.134 29.8958 109.612 30.2765 109.96 30.7614C110.309 31.2424 110.491 31.7955 110.506 32.4205H108.812ZM116.7 32.2727V33.6364H111.933V32.2727H116.7ZM113.212 30.1818H114.911V38.4375C114.911 38.767 114.96 39.0152 115.058 39.1818C115.157 39.3447 115.284 39.4564 115.439 39.517C115.598 39.5739 115.77 39.6023 115.956 39.6023C116.092 39.6023 116.212 39.5928 116.314 39.5739C116.416 39.5549 116.496 39.5398 116.553 39.5284L116.859 40.9318C116.761 40.9697 116.621 41.0076 116.439 41.0455C116.257 41.0871 116.03 41.1098 115.757 41.1136C115.31 41.1212 114.893 41.0417 114.507 40.875C114.121 40.7083 113.808 40.4508 113.57 40.1023C113.331 39.7538 113.212 39.3163 113.212 38.7898V30.1818ZM122.162 41.1761C121.344 41.1761 120.63 40.9886 120.02 40.6136C119.41 40.2386 118.937 39.714 118.599 39.0398C118.262 38.3655 118.094 37.5777 118.094 36.6761C118.094 35.7708 118.262 34.9792 118.599 34.3011C118.937 33.6231 119.41 33.0966 120.02 32.7216C120.63 32.3466 121.344 32.1591 122.162 32.1591C122.98 32.1591 123.694 32.3466 124.304 32.7216C124.914 33.0966 125.387 33.6231 125.724 34.3011C126.062 34.9792 126.23 35.7708 126.23 36.6761C126.23 37.5777 126.062 38.3655 125.724 39.0398C125.387 39.714 124.914 40.2386 124.304 40.6136C123.694 40.9886 122.98 41.1761 122.162 41.1761ZM122.168 39.75C122.698 39.75 123.137 39.6098 123.486 39.3295C123.834 39.0492 124.092 38.6761 124.259 38.2102C124.429 37.7443 124.514 37.2311 124.514 36.6705C124.514 36.1136 124.429 35.6023 124.259 35.1364C124.092 34.6667 123.834 34.2898 123.486 34.0057C123.137 33.7216 122.698 33.5795 122.168 33.5795C121.634 33.5795 121.19 33.7216 120.838 34.0057C120.49 34.2898 120.23 34.6667 120.06 35.1364C119.893 35.6023 119.81 36.1136 119.81 36.6705C119.81 37.2311 119.893 37.7443 120.06 38.2102C120.23 38.6761 120.49 39.0492 120.838 39.3295C121.19 39.6098 121.634 39.75 122.168 39.75ZM128.126 41V32.2727H129.768V33.6591H129.859C130.018 33.1894 130.299 32.8201 130.7 32.5511C131.106 32.2784 131.564 32.142 132.075 32.142C132.181 32.142 132.306 32.1458 132.45 32.1534C132.598 32.161 132.714 32.1705 132.797 32.1818V33.8068C132.729 33.7879 132.607 33.767 132.433 33.7443C132.259 33.7178 132.085 33.7045 131.911 33.7045C131.509 33.7045 131.151 33.7898 130.837 33.9602C130.526 34.1269 130.28 34.3598 130.098 34.6591C129.916 34.9545 129.825 35.2917 129.825 35.6705V41H128.126ZM137.716 41.1761C136.856 41.1761 136.116 40.9924 135.494 40.625C134.877 40.2538 134.4 39.733 134.062 39.0625C133.729 38.3883 133.562 37.5985 133.562 36.6932C133.562 35.7992 133.729 35.0114 134.062 34.3295C134.4 33.6477 134.869 33.1155 135.472 32.733C136.078 32.3504 136.786 32.1591 137.597 32.1591C138.089 32.1591 138.566 32.2405 139.028 32.4034C139.491 32.5663 139.905 32.822 140.273 33.1705C140.64 33.5189 140.93 33.9716 141.142 34.5284C141.354 35.0814 141.46 35.7538 141.46 36.5455V37.1477H134.523V35.875H139.795C139.795 35.428 139.705 35.0322 139.523 34.6875C139.341 34.339 139.085 34.0644 138.756 33.8636C138.43 33.6629 138.047 33.5625 137.608 33.5625C137.131 33.5625 136.714 33.6799 136.358 33.9148C136.006 34.1458 135.733 34.4489 135.54 34.8239C135.35 35.1951 135.256 35.5985 135.256 36.0341V37.0284C135.256 37.6117 135.358 38.108 135.562 38.517C135.771 38.9261 136.061 39.2386 136.432 39.4545C136.803 39.6667 137.237 39.7727 137.733 39.7727C138.055 39.7727 138.348 39.7273 138.614 39.6364C138.879 39.5417 139.108 39.4015 139.301 39.2159C139.494 39.0303 139.642 38.8011 139.744 38.5284L141.352 38.8182C141.223 39.2917 140.992 39.7064 140.659 40.0625C140.33 40.4148 139.915 40.6894 139.415 40.8864C138.919 41.0795 138.352 41.1761 137.716 41.1761Z" fill="white"/>
<defs>
<clipPath id="clip0_4686_7764">
<rect width="32" height="32" fill="white" transform="translate(20 13)"/>
</clipPath>
</defs>
</svg>
