<svg width="164" height="58" viewBox="0 0 164 58" fill="none" xmlns="http://www.w3.org/2000/svg">
<rect width="164" height="58" fill="#363B47" fill-opacity="0.4"/>
<path d="M39.8023 22.7673L23.0188 13.1222C22.8079 12.9991 22.5425 13.0059 22.3385 13.129C22.1276 13.2522 21.9983 13.4711 21.9983 13.7173C21.9983 13.7173 22.0051 14.6066 22.0119 16.0705L34.2373 28.3629L39.8023 22.7673Z" fill="url(#paint0_linear_4686_7775)"/>
<path d="M22.012 16.0703C22.0324 21.3512 22.0936 34.1704 22.1208 40.5526L34.2441 28.3628L22.012 16.0703Z" fill="url(#paint1_linear_4686_7775)"/>
<path d="M49.4084 28.2879L39.8023 22.7676L34.2305 28.3631L40.5166 34.6838L49.4152 29.4713C49.6262 29.3482 49.7554 29.1224 49.7554 28.883C49.7554 28.6368 49.6193 28.411 49.4084 28.2879Z" fill="url(#paint2_linear_4686_7775)"/>
<path d="M22.114 40.5521C22.1276 42.83 22.1344 44.2871 22.1344 44.2871C22.1344 44.5333 22.2637 44.759 22.4746 44.8753C22.6855 44.9985 22.944 44.9985 23.1549 44.8753L40.5235 34.6898L34.2373 28.3691L22.114 40.5521Z" fill="url(#paint3_linear_4686_7775)"/>
<path d="M69.125 21H66.8807V13.7273H69.2244C69.9299 13.7273 70.5336 13.8729 71.0355 14.1641C71.5374 14.4529 71.9221 14.8684 72.1896 15.4105C72.4571 15.9503 72.5909 16.5966 72.5909 17.3494C72.5909 18.107 72.456 18.7592 72.1861 19.3061C71.9162 19.8506 71.5232 20.2696 71.0071 20.5632C70.491 20.8544 69.8636 21 69.125 21ZM67.7614 20.2188H69.0682C69.6695 20.2188 70.1679 20.1027 70.5632 19.8707C70.9586 19.6387 71.2533 19.3085 71.4474 18.88C71.6416 18.4515 71.7386 17.9413 71.7386 17.3494C71.7386 16.7623 71.6428 16.2569 71.451 15.8331C71.2592 15.407 70.9728 15.0803 70.5916 14.853C70.2105 14.6233 69.7358 14.5085 69.1676 14.5085H67.7614V20.2188ZM76.1705 21.1136C75.678 21.1136 75.246 20.9964 74.8743 20.7621C74.505 20.5277 74.2161 20.1998 74.0078 19.7784C73.8018 19.357 73.6989 18.8646 73.6989 18.3011C73.6989 17.733 73.8018 17.237 74.0078 16.8132C74.2161 16.3894 74.505 16.0604 74.8743 15.826C75.246 15.5916 75.678 15.4744 76.1705 15.4744C76.6629 15.4744 77.0938 15.5916 77.4631 15.826C77.8348 16.0604 78.1236 16.3894 78.3295 16.8132C78.5379 17.237 78.642 17.733 78.642 18.3011C78.642 18.8646 78.5379 19.357 78.3295 19.7784C78.1236 20.1998 77.8348 20.5277 77.4631 20.7621C77.0938 20.9964 76.6629 21.1136 76.1705 21.1136ZM76.1705 20.3608C76.5445 20.3608 76.8523 20.2649 77.0938 20.0732C77.3352 19.8814 77.514 19.6293 77.63 19.3168C77.746 19.0043 77.804 18.6657 77.804 18.3011C77.804 17.9366 77.746 17.5968 77.63 17.282C77.514 16.9671 77.3352 16.7126 77.0938 16.5185C76.8523 16.3243 76.5445 16.2273 76.1705 16.2273C75.7964 16.2273 75.4886 16.3243 75.2472 16.5185C75.0057 16.7126 74.8269 16.9671 74.7109 17.282C74.5949 17.5968 74.5369 17.9366 74.5369 18.3011C74.5369 18.6657 74.5949 19.0043 74.7109 19.3168C74.8269 19.6293 75.0057 19.8814 75.2472 20.0732C75.4886 20.2649 75.7964 20.3608 76.1705 20.3608ZM80.9716 21L79.3097 15.5455H80.1903L81.3693 19.7216H81.4261L82.5909 15.5455H83.4858L84.6364 19.7074H84.6932L85.8722 15.5455H86.7528L85.0909 21H84.267L83.0739 16.8097H82.9886L81.7955 21H80.9716ZM88.6989 17.7188V21H87.8608V15.5455H88.6705V16.3977H88.7415C88.8693 16.1207 89.0634 15.8982 89.3239 15.7301C89.5843 15.5597 89.9205 15.4744 90.3324 15.4744C90.7017 15.4744 91.0249 15.5502 91.3018 15.7017C91.5788 15.8509 91.7943 16.0781 91.9482 16.3835C92.102 16.6866 92.179 17.0701 92.179 17.5341V21H91.3409V17.5909C91.3409 17.1624 91.2296 16.8286 91.0071 16.5895C90.7846 16.348 90.4792 16.2273 90.0909 16.2273C89.8234 16.2273 89.5843 16.2853 89.3736 16.4013C89.1652 16.5173 89.0007 16.6866 88.88 16.9091C88.7592 17.1316 88.6989 17.4015 88.6989 17.7188ZM94.5485 13.7273V21H93.7104V13.7273H94.5485ZM98.2994 21.1136C97.8069 21.1136 97.3749 20.9964 97.0032 20.7621C96.6339 20.5277 96.3451 20.1998 96.1367 19.7784C95.9308 19.357 95.8278 18.8646 95.8278 18.3011C95.8278 17.733 95.9308 17.237 96.1367 16.8132C96.3451 16.3894 96.6339 16.0604 97.0032 15.826C97.3749 15.5916 97.8069 15.4744 98.2994 15.4744C98.7918 15.4744 99.2227 15.5916 99.592 15.826C99.9637 16.0604 100.252 16.3894 100.458 16.8132C100.667 17.237 100.771 17.733 100.771 18.3011C100.771 18.8646 100.667 19.357 100.458 19.7784C100.252 20.1998 99.9637 20.5277 99.592 20.7621C99.2227 20.9964 98.7918 21.1136 98.2994 21.1136ZM98.2994 20.3608C98.6734 20.3608 98.9812 20.2649 99.2227 20.0732C99.4641 19.8814 99.6429 19.6293 99.7589 19.3168C99.8749 19.0043 99.9329 18.6657 99.9329 18.3011C99.9329 17.9366 99.8749 17.5968 99.7589 17.282C99.6429 16.9671 99.4641 16.7126 99.2227 16.5185C98.9812 16.3243 98.6734 16.2273 98.2994 16.2273C97.9253 16.2273 97.6175 16.3243 97.3761 16.5185C97.1346 16.7126 96.9558 16.9671 96.8398 17.282C96.7238 17.5968 96.6658 17.9366 96.6658 18.3011C96.6658 18.6657 96.7238 19.0043 96.8398 19.3168C96.9558 19.6293 97.1346 19.8814 97.3761 20.0732C97.6175 20.2649 97.9253 20.3608 98.2994 20.3608ZM103.655 21.1278C103.31 21.1278 102.996 21.0627 102.714 20.9325C102.433 20.8 102.209 20.6094 102.043 20.3608C101.877 20.1098 101.795 19.8068 101.795 19.4517C101.795 19.1392 101.856 18.8859 101.979 18.6918C102.102 18.4953 102.267 18.3414 102.473 18.2301C102.679 18.1188 102.906 18.036 103.155 17.9815C103.406 17.9247 103.658 17.8797 103.911 17.8466C104.242 17.804 104.511 17.772 104.717 17.7507C104.925 17.727 105.077 17.688 105.172 17.6335C105.269 17.5791 105.317 17.4844 105.317 17.3494V17.321C105.317 16.9706 105.221 16.6984 105.03 16.5043C104.84 16.3101 104.553 16.2131 104.167 16.2131C103.767 16.2131 103.453 16.3007 103.226 16.4759C102.998 16.651 102.839 16.8381 102.746 17.0369L101.951 16.7528C102.093 16.4214 102.282 16.1634 102.519 15.9787C102.758 15.7917 103.019 15.6615 103.3 15.5881C103.584 15.5123 103.864 15.4744 104.138 15.4744C104.314 15.4744 104.515 15.4957 104.742 15.5384C104.972 15.5786 105.193 15.6626 105.406 15.7905C105.622 15.9183 105.8 16.1113 105.942 16.3693C106.084 16.6274 106.155 16.973 106.155 17.4062V21H105.317V20.2614H105.275C105.218 20.3797 105.123 20.5064 104.991 20.6413C104.858 20.7763 104.682 20.8911 104.461 20.9858C104.241 21.0805 103.973 21.1278 103.655 21.1278ZM103.783 20.375C104.115 20.375 104.394 20.3099 104.621 20.1797C104.851 20.0495 105.024 19.8814 105.14 19.6754C105.258 19.4695 105.317 19.2528 105.317 19.0256V18.2585C105.282 18.3011 105.204 18.3402 105.083 18.3757C104.965 18.4089 104.827 18.4384 104.671 18.4645C104.517 18.4882 104.367 18.5095 104.22 18.5284C104.076 18.545 103.958 18.5592 103.868 18.571C103.651 18.5994 103.447 18.6456 103.258 18.7095C103.071 18.7711 102.919 18.8646 102.803 18.9901C102.689 19.1132 102.633 19.2812 102.633 19.4943C102.633 19.7855 102.74 20.0057 102.956 20.1548C103.174 20.3016 103.449 20.375 103.783 20.375ZM109.745 21.1136C109.29 21.1136 108.889 20.9988 108.541 20.7692C108.193 20.5372 107.921 20.2105 107.724 19.7891C107.528 19.3653 107.429 18.8646 107.429 18.2869C107.429 17.714 107.528 17.2169 107.724 16.7955C107.921 16.3741 108.194 16.0485 108.544 15.8189C108.895 15.5893 109.3 15.4744 109.759 15.4744C110.114 15.4744 110.395 15.5336 110.6 15.652C110.809 15.768 110.967 15.9006 111.076 16.0497C111.188 16.1965 111.274 16.3172 111.336 16.4119H111.407V13.7273H112.245V21H111.435V20.1619H111.336C111.274 20.2614 111.186 20.3868 111.073 20.5384C110.959 20.6875 110.797 20.8213 110.586 20.9396C110.376 21.0556 110.095 21.1136 109.745 21.1136ZM109.858 20.3608C110.194 20.3608 110.479 20.2732 110.711 20.098C110.943 19.9205 111.119 19.6754 111.24 19.3629C111.36 19.0481 111.421 18.6847 111.421 18.2727C111.421 17.8655 111.362 17.5092 111.243 17.2038C111.125 16.8961 110.95 16.657 110.718 16.4865C110.486 16.3137 110.199 16.2273 109.858 16.2273C109.503 16.2273 109.207 16.3184 108.971 16.5007C108.736 16.6806 108.56 16.9257 108.441 17.2358C108.325 17.5436 108.267 17.8892 108.267 18.2727C108.267 18.661 108.327 19.0137 108.445 19.331C108.566 19.6458 108.743 19.8968 108.978 20.0838C109.214 20.2685 109.508 20.3608 109.858 20.3608ZM117.547 17.7188V21H116.708V15.5455H117.518V16.3977H117.589C117.717 16.1207 117.911 15.8982 118.172 15.7301C118.432 15.5597 118.768 15.4744 119.18 15.4744C119.549 15.4744 119.873 15.5502 120.15 15.7017C120.426 15.8509 120.642 16.0781 120.796 16.3835C120.95 16.6866 121.027 17.0701 121.027 17.5341V21H120.189V17.5909C120.189 17.1624 120.077 16.8286 119.855 16.5895C119.632 16.348 119.327 16.2273 118.939 16.2273C118.671 16.2273 118.432 16.2853 118.221 16.4013C118.013 16.5173 117.848 16.6866 117.728 16.9091C117.607 17.1316 117.547 17.4015 117.547 17.7188ZM124.774 21.1136C124.282 21.1136 123.849 20.9964 123.478 20.7621C123.108 20.5277 122.82 20.1998 122.611 19.7784C122.405 19.357 122.302 18.8646 122.302 18.3011C122.302 17.733 122.405 17.237 122.611 16.8132C122.82 16.3894 123.108 16.0604 123.478 15.826C123.849 15.5916 124.282 15.4744 124.774 15.4744C125.266 15.4744 125.697 15.5916 126.067 15.826C126.438 16.0604 126.727 16.3894 126.933 16.8132C127.141 17.237 127.246 17.733 127.246 18.3011C127.246 18.8646 127.141 19.357 126.933 19.7784C126.727 20.1998 126.438 20.5277 126.067 20.7621C125.697 20.9964 125.266 21.1136 124.774 21.1136ZM124.774 20.3608C125.148 20.3608 125.456 20.2649 125.697 20.0732C125.939 19.8814 126.117 19.6293 126.233 19.3168C126.349 19.0043 126.407 18.6657 126.407 18.3011C126.407 17.9366 126.349 17.5968 126.233 17.282C126.117 16.9671 125.939 16.7126 125.697 16.5185C125.456 16.3243 125.148 16.2273 124.774 16.2273C124.4 16.2273 124.092 16.3243 123.851 16.5185C123.609 16.7126 123.43 16.9671 123.314 17.282C123.198 17.5968 123.14 17.9366 123.14 18.3011C123.14 18.6657 123.198 19.0043 123.314 19.3168C123.43 19.6293 123.609 19.8814 123.851 20.0732C124.092 20.2649 124.4 20.3608 124.774 20.3608ZM129.575 21L127.913 15.5455H128.794L129.973 19.7216H130.03L131.194 15.5455H132.089L133.24 19.7074H133.297L134.476 15.5455H135.356L133.694 21H132.871L131.677 16.8097H131.592L130.399 21H129.575Z" fill="#B7BAC7"/>
<path d="M67.2784 41V29.3636H71.4261C72.3314 29.3636 73.0814 29.5284 73.6761 29.858C74.2708 30.1875 74.7159 30.6383 75.0114 31.2102C75.3068 31.7784 75.4545 32.4186 75.4545 33.1307C75.4545 33.8466 75.3049 34.4905 75.0057 35.0625C74.7102 35.6307 74.2633 36.0814 73.6648 36.4148C73.0701 36.7443 72.322 36.9091 71.4205 36.9091H68.5682V35.4205H71.2614C71.8333 35.4205 72.2973 35.322 72.6534 35.125C73.0095 34.9242 73.2708 34.6515 73.4375 34.3068C73.6042 33.9621 73.6875 33.5701 73.6875 33.1307C73.6875 32.6913 73.6042 32.3011 73.4375 31.9602C73.2708 31.6193 73.0076 31.3523 72.6477 31.1591C72.2917 30.9659 71.822 30.8693 71.2386 30.8693H69.0341V41H67.2784ZM79.0753 29.3636V41H77.3764V29.3636H79.0753ZM83.9006 41.1932C83.3475 41.1932 82.8475 41.0909 82.4006 40.8864C81.9536 40.678 81.5994 40.3769 81.3381 39.983C81.0805 39.589 80.9517 39.1061 80.9517 38.5341C80.9517 38.0417 81.0464 37.6364 81.2358 37.3182C81.4252 37 81.6809 36.7481 82.0028 36.5625C82.3248 36.3769 82.6847 36.2367 83.0824 36.142C83.4801 36.0473 83.8854 35.9754 84.2983 35.9261C84.821 35.8655 85.2453 35.8163 85.571 35.7784C85.8968 35.7367 86.1335 35.6705 86.2812 35.5795C86.429 35.4886 86.5028 35.3409 86.5028 35.1364V35.0966C86.5028 34.6004 86.3627 34.2159 86.0824 33.9432C85.8059 33.6705 85.393 33.5341 84.8438 33.5341C84.2718 33.5341 83.821 33.661 83.4915 33.9148C83.1657 34.1648 82.9403 34.4432 82.8153 34.75L81.2188 34.3864C81.4081 33.8561 81.6847 33.428 82.0483 33.1023C82.4157 32.7727 82.8381 32.5341 83.3153 32.3864C83.7926 32.2348 84.2945 32.1591 84.821 32.1591C85.1695 32.1591 85.5388 32.2008 85.929 32.2841C86.3229 32.3636 86.6903 32.5114 87.0312 32.7273C87.3759 32.9432 87.6581 33.2519 87.8778 33.6534C88.0975 34.0511 88.2074 34.5682 88.2074 35.2045V41H86.5483V39.8068H86.4801C86.3703 40.0265 86.2055 40.2424 85.9858 40.4545C85.7661 40.6667 85.4839 40.8428 85.1392 40.983C84.7945 41.1231 84.3816 41.1932 83.9006 41.1932ZM84.2699 39.8295C84.7396 39.8295 85.1411 39.7367 85.4744 39.5511C85.8116 39.3655 86.0672 39.1231 86.2415 38.8239C86.4195 38.5208 86.5085 38.197 86.5085 37.8523V36.7273C86.4479 36.7879 86.3305 36.8447 86.1562 36.8977C85.9858 36.947 85.7907 36.9905 85.571 37.0284C85.3513 37.0625 85.1373 37.0947 84.929 37.125C84.7206 37.1515 84.5464 37.1742 84.4062 37.1932C84.0767 37.2348 83.7756 37.3049 83.5028 37.4034C83.2339 37.5019 83.018 37.6439 82.8551 37.8295C82.696 38.0114 82.6165 38.2538 82.6165 38.5568C82.6165 38.9773 82.7718 39.2955 83.0824 39.5114C83.393 39.7235 83.7888 39.8295 84.2699 39.8295ZM91.2315 44.2727C90.9777 44.2727 90.7467 44.2519 90.5384 44.2102C90.33 44.1723 90.1747 44.1307 90.0724 44.0852L90.4815 42.6932C90.7921 42.7765 91.0687 42.8125 91.3111 42.8011C91.5535 42.7898 91.7675 42.6989 91.9531 42.5284C92.1425 42.358 92.3092 42.0795 92.4531 41.6932L92.6634 41.1136L89.4702 32.2727H91.2884L93.4986 39.0455H93.5895L95.7997 32.2727H97.6236L94.027 42.1648C93.8603 42.6193 93.6482 43.0038 93.3906 43.3182C93.133 43.6364 92.8262 43.875 92.4702 44.0341C92.1141 44.1932 91.7012 44.2727 91.2315 44.2727ZM109.938 32.4205C109.877 31.8826 109.627 31.4659 109.188 31.1705C108.748 30.8712 108.195 30.7216 107.528 30.7216C107.051 30.7216 106.638 30.7973 106.29 30.9489C105.941 31.0966 105.67 31.3011 105.477 31.5625C105.288 31.8201 105.193 32.1136 105.193 32.4432C105.193 32.7197 105.258 32.9583 105.386 33.1591C105.519 33.3598 105.691 33.5284 105.903 33.6648C106.119 33.7973 106.35 33.9091 106.597 34C106.843 34.0871 107.08 34.1591 107.307 34.2159L108.443 34.5114C108.814 34.6023 109.195 34.7254 109.585 34.8807C109.975 35.036 110.337 35.2405 110.67 35.4943C111.004 35.7481 111.273 36.0625 111.477 36.4375C111.686 36.8125 111.79 37.2614 111.79 37.7841C111.79 38.4432 111.619 39.0284 111.278 39.5398C110.941 40.0511 110.451 40.4545 109.807 40.75C109.167 41.0455 108.392 41.1932 107.483 41.1932C106.612 41.1932 105.858 41.0549 105.222 40.7784C104.585 40.5019 104.087 40.1098 103.727 39.6023C103.367 39.0909 103.169 38.4848 103.131 37.7841H104.892C104.926 38.2045 105.063 38.5549 105.301 38.8352C105.544 39.1117 105.852 39.3182 106.227 39.4545C106.606 39.5871 107.021 39.6534 107.472 39.6534C107.968 39.6534 108.409 39.5758 108.795 39.4205C109.186 39.2614 109.492 39.0417 109.716 38.7614C109.939 38.4773 110.051 38.1458 110.051 37.767C110.051 37.4223 109.953 37.1402 109.756 36.9205C109.563 36.7008 109.299 36.5189 108.966 36.375C108.636 36.2311 108.263 36.1042 107.847 35.9943L106.472 35.6193C105.54 35.3655 104.801 34.9924 104.256 34.5C103.714 34.0076 103.443 33.3561 103.443 32.5455C103.443 31.875 103.625 31.2898 103.989 30.7898C104.352 30.2898 104.845 29.9015 105.466 29.625C106.087 29.3447 106.788 29.2045 107.568 29.2045C108.356 29.2045 109.051 29.3428 109.653 29.6193C110.259 29.8958 110.737 30.2765 111.085 30.7614C111.434 31.2424 111.616 31.7955 111.631 32.4205H109.938ZM117.825 32.2727V33.6364H113.058V32.2727H117.825ZM114.337 30.1818H116.036V38.4375C116.036 38.767 116.085 39.0152 116.183 39.1818C116.282 39.3447 116.409 39.4564 116.564 39.517C116.723 39.5739 116.895 39.6023 117.081 39.6023C117.217 39.6023 117.337 39.5928 117.439 39.5739C117.541 39.5549 117.621 39.5398 117.678 39.5284L117.984 40.9318C117.886 40.9697 117.746 41.0076 117.564 41.0455C117.382 41.0871 117.155 41.1098 116.882 41.1136C116.435 41.1212 116.018 41.0417 115.632 40.875C115.246 40.7083 114.933 40.4508 114.695 40.1023C114.456 39.7538 114.337 39.3163 114.337 38.7898V30.1818ZM123.287 41.1761C122.469 41.1761 121.755 40.9886 121.145 40.6136C120.535 40.2386 120.062 39.714 119.724 39.0398C119.387 38.3655 119.219 37.5777 119.219 36.6761C119.219 35.7708 119.387 34.9792 119.724 34.3011C120.062 33.6231 120.535 33.0966 121.145 32.7216C121.755 32.3466 122.469 32.1591 123.287 32.1591C124.105 32.1591 124.819 32.3466 125.429 32.7216C126.039 33.0966 126.512 33.6231 126.849 34.3011C127.187 34.9792 127.355 35.7708 127.355 36.6761C127.355 37.5777 127.187 38.3655 126.849 39.0398C126.512 39.714 126.039 40.2386 125.429 40.6136C124.819 40.9886 124.105 41.1761 123.287 41.1761ZM123.293 39.75C123.823 39.75 124.262 39.6098 124.611 39.3295C124.959 39.0492 125.217 38.6761 125.384 38.2102C125.554 37.7443 125.639 37.2311 125.639 36.6705C125.639 36.1136 125.554 35.6023 125.384 35.1364C125.217 34.6667 124.959 34.2898 124.611 34.0057C124.262 33.7216 123.823 33.5795 123.293 33.5795C122.759 33.5795 122.315 33.7216 121.963 34.0057C121.615 34.2898 121.355 34.6667 121.185 35.1364C121.018 35.6023 120.935 36.1136 120.935 36.6705C120.935 37.2311 121.018 37.7443 121.185 38.2102C121.355 38.6761 121.615 39.0492 121.963 39.3295C122.315 39.6098 122.759 39.75 123.293 39.75ZM129.251 41V32.2727H130.893V33.6591H130.984C131.143 33.1894 131.424 32.8201 131.825 32.5511C132.231 32.2784 132.689 32.142 133.2 32.142C133.306 32.142 133.431 32.1458 133.575 32.1534C133.723 32.161 133.839 32.1705 133.922 32.1818V33.8068C133.854 33.7879 133.732 33.767 133.558 33.7443C133.384 33.7178 133.21 33.7045 133.036 33.7045C132.634 33.7045 132.276 33.7898 131.962 33.9602C131.651 34.1269 131.405 34.3598 131.223 34.6591C131.041 34.9545 130.95 35.2917 130.95 35.6705V41H129.251ZM138.841 41.1761C137.981 41.1761 137.241 40.9924 136.619 40.625C136.002 40.2538 135.525 39.733 135.188 39.0625C134.854 38.3883 134.688 37.5985 134.688 36.6932C134.688 35.7992 134.854 35.0114 135.188 34.3295C135.525 33.6477 135.994 33.1155 136.597 32.733C137.203 32.3504 137.911 32.1591 138.722 32.1591C139.214 32.1591 139.691 32.2405 140.153 32.4034C140.616 32.5663 141.03 32.822 141.398 33.1705C141.765 33.5189 142.055 33.9716 142.267 34.5284C142.479 35.0814 142.585 35.7538 142.585 36.5455V37.1477H135.648V35.875H140.92C140.92 35.428 140.83 35.0322 140.648 34.6875C140.466 34.339 140.21 34.0644 139.881 33.8636C139.555 33.6629 139.172 33.5625 138.733 33.5625C138.256 33.5625 137.839 33.6799 137.483 33.9148C137.131 34.1458 136.858 34.4489 136.665 34.8239C136.475 35.1951 136.381 35.5985 136.381 36.0341V37.0284C136.381 37.6117 136.483 38.108 136.688 38.517C136.896 38.9261 137.186 39.2386 137.557 39.4545C137.928 39.6667 138.362 39.7727 138.858 39.7727C139.18 39.7727 139.473 39.7273 139.739 39.6364C140.004 39.5417 140.233 39.4015 140.426 39.2159C140.619 39.0303 140.767 38.8011 140.869 38.5284L142.477 38.8182C142.348 39.2917 142.117 39.7064 141.784 40.0625C141.455 40.4148 141.04 40.6894 140.54 40.8864C140.044 41.0795 139.477 41.1761 138.841 41.1761Z" fill="white"/>
<defs>
<linearGradient id="paint0_linear_4686_7775" x1="21.9983" y1="20.7011" x2="39.8054" y2="20.7011" gradientUnits="userSpaceOnUse">
<stop stop-color="#63BE6B"/>
<stop offset="0.506" stop-color="#5BBC6A"/>
<stop offset="1" stop-color="#4AB96A"/>
</linearGradient>
<linearGradient id="paint1_linear_4686_7775" x1="22.0087" y1="28.3144" x2="34.237" y2="28.3144" gradientUnits="userSpaceOnUse">
<stop stop-color="#3EC6F2"/>
<stop offset="1" stop-color="#45AFE3"/>
</linearGradient>
<linearGradient id="paint2_linear_4686_7775" x1="34.237" y1="28.7301" x2="49.7538" y2="28.7301" gradientUnits="userSpaceOnUse">
<stop stop-color="#FAA51A"/>
<stop offset="0.387" stop-color="#FAB716"/>
<stop offset="0.741" stop-color="#FAC412"/>
<stop offset="1" stop-color="#FAC80F"/>
</linearGradient>
<linearGradient id="paint3_linear_4686_7775" x1="22.117" y1="36.6681" x2="40.5232" y2="36.6681" gradientUnits="userSpaceOnUse">
<stop stop-color="#EC3B50"/>
<stop offset="1" stop-color="#E7515B"/>
</linearGradient>
</defs>
</svg>
