<svg width="177" height="46" viewBox="0 0 177 46" fill="none" xmlns="http://www.w3.org/2000/svg">
<path d="M2.4375 17.25L24 5.75L45.5625 17.25L24 28.75L2.4375 17.25Z" stroke="#FF6636" stroke-width="3.45" stroke-linecap="round" stroke-linejoin="round"/>
<path d="M34.7812 43.125V23L24 17.25" stroke="#FF6636" stroke-width="3.45" stroke-linecap="round" stroke-linejoin="round"/>
<path d="M40.5313 19.9336V29.7303C40.5319 30.0404 40.4316 30.3423 40.2456 30.5904C39.0351 32.2012 33.9283 38.094 24 38.094C14.0717 38.094 8.96486 32.2012 7.75437 30.5904C7.5684 30.3423 7.46816 30.0404 7.46875 29.7303V19.9336" stroke="#FF6636" stroke-width="3.45" stroke-linecap="round" stroke-linejoin="round"/>
<path d="M58.8397 36V9.23636H76.2465V13.3006H63.688V20.5665H75.3448V24.6307H63.688V31.9358H76.3511V36H58.8397ZM92.0462 22.9057V26.8H79.9974V22.9057H92.0462ZM105.941 15.9273V19.5864H94.402V15.9273H105.941ZM97.2509 11.1182H101.982V29.9625C101.982 30.5985 102.077 31.0864 102.269 31.4261C102.469 31.7572 102.731 31.9837 103.053 32.1057C103.376 32.2277 103.733 32.2886 104.125 32.2886C104.421 32.2886 104.691 32.2669 104.935 32.2233C105.188 32.1797 105.379 32.1405 105.51 32.1057L106.307 35.804C106.054 35.8911 105.693 35.9869 105.222 36.0915C104.761 36.196 104.194 36.257 103.524 36.2744C102.339 36.3093 101.272 36.1307 100.322 35.7386C99.3723 35.3379 98.6187 34.7193 98.0611 33.883C97.5123 33.0466 97.2422 32.0011 97.2509 30.7466V11.1182ZM121.587 27.558V15.9273H126.318V36H121.731V32.4324H121.522C121.069 33.5562 120.324 34.4754 119.287 35.1898C118.259 35.9042 116.992 36.2614 115.485 36.2614C114.169 36.2614 113.006 35.9695 111.995 35.3858C110.993 34.7934 110.209 33.9352 109.643 32.8114C109.077 31.6788 108.794 30.311 108.794 28.708V15.9273H113.524V27.9761C113.524 29.2481 113.873 30.2587 114.57 31.008C115.267 31.7572 116.182 32.1318 117.314 32.1318C118.011 32.1318 118.686 31.9619 119.34 31.6222C119.993 31.2824 120.529 30.7771 120.947 30.1063C121.374 29.4267 121.587 28.5773 121.587 27.558ZM140.102 15.9273V19.5864H128.563V15.9273H140.102ZM131.412 11.1182H136.142V29.9625C136.142 30.5985 136.238 31.0864 136.43 31.4261C136.63 31.7572 136.892 31.9837 137.214 32.1057C137.536 32.2277 137.893 32.2886 138.286 32.2886C138.582 32.2886 138.852 32.2669 139.096 32.2233C139.348 32.1797 139.54 32.1405 139.671 32.1057L140.468 35.804C140.215 35.8911 139.854 35.9869 139.383 36.0915C138.921 36.196 138.355 36.257 137.684 36.2744C136.5 36.3093 135.432 36.1307 134.483 35.7386C133.533 35.3379 132.779 34.7193 132.222 33.883C131.673 33.0466 131.403 32.0011 131.412 30.7466V11.1182ZM151.494 36.392C149.534 36.392 147.835 35.9608 146.398 35.0983C144.96 34.2358 143.845 33.0292 143.052 31.4784C142.268 29.9277 141.876 28.1155 141.876 26.042C141.876 23.9686 142.268 22.1521 143.052 20.5926C143.845 19.0331 144.96 17.8222 146.398 16.9597C147.835 16.0972 149.534 15.6659 151.494 15.6659C153.455 15.6659 155.154 16.0972 156.591 16.9597C158.029 17.8222 159.139 19.0331 159.923 20.5926C160.716 22.1521 161.113 23.9686 161.113 26.042C161.113 28.1155 160.716 29.9277 159.923 31.4784C159.139 33.0292 158.029 34.2358 156.591 35.0983C155.154 35.9608 153.455 36.392 151.494 36.392ZM151.521 32.6023C152.583 32.6023 153.472 32.3104 154.186 31.7267C154.901 31.1343 155.432 30.3415 155.781 29.3483C156.138 28.3551 156.317 27.2487 156.317 26.029C156.317 24.8006 156.138 23.6898 155.781 22.6966C155.432 21.6947 154.901 20.8975 154.186 20.3051C153.472 19.7127 152.583 19.4165 151.521 19.4165C150.432 19.4165 149.525 19.7127 148.802 20.3051C148.088 20.8975 147.552 21.6947 147.195 22.6966C146.847 23.6898 146.672 24.8006 146.672 26.029C146.672 27.2487 146.847 28.3551 147.195 29.3483C147.552 30.3415 148.088 31.1343 148.802 31.7267C149.525 32.3104 150.432 32.6023 151.521 32.6023ZM164.024 36V15.9273H168.611V19.2727H168.82C169.186 18.114 169.813 17.221 170.702 16.5938C171.599 15.9578 172.623 15.6398 173.773 15.6398C174.034 15.6398 174.326 15.6528 174.648 15.679C174.979 15.6964 175.254 15.7269 175.472 15.7705V20.1222C175.271 20.0525 174.953 19.9915 174.518 19.9392C174.091 19.8782 173.677 19.8477 173.276 19.8477C172.414 19.8477 171.638 20.035 170.95 20.4097C170.27 20.7756 169.735 21.2852 169.343 21.9386C168.951 22.592 168.755 23.3456 168.755 24.1994V36H164.024Z" fill="white"/>
</svg>
