<svg width="18" height="18" viewBox="0 0 18 18" fill="none" xmlns="http://www.w3.org/2000/svg">
<path d="M17.9507 5.29205C17.9086 4.33564 17.7539 3.67812 17.5324 3.10836C17.3038 2.50359 16.9522 1.96213 16.4915 1.51201C16.0414 1.05489 15.4963 0.699691 14.8986 0.474702C14.3255 0.253147 13.6714 0.0984842 12.715 0.0563159C11.7515 0.0105764 11.4456 0 9.00174 0C6.55791 0 6.25202 0.0105764 5.29204 0.0527447C4.33563 0.0949129 3.67811 0.249713 3.1085 0.471131C2.50358 0.699691 1.96213 1.05132 1.51201 1.51201C1.05489 1.96213 0.699827 2.50716 0.474701 3.10493C0.253147 3.67812 0.098484 4.33207 0.0563158 5.28848C0.0105764 6.25203 0 6.55792 0 9.00176C0 11.4456 0.0105764 11.7515 0.0527446 12.7115C0.0949128 13.6679 0.249713 14.3254 0.471267 14.8952C0.699827 15.4999 1.05489 16.0414 1.51201 16.4915C1.96213 16.9486 2.50715 17.3038 3.10493 17.5288C3.67811 17.7504 4.33206 17.905 5.28861 17.9472C6.24845 17.9895 6.55448 17.9999 8.99831 17.9999C11.4421 17.9999 11.748 17.9895 12.708 17.9472C13.6644 17.905 14.3219 17.7504 14.8916 17.5288C16.1012 17.0611 17.0577 16.1047 17.5254 14.8952C17.7468 14.322 17.9016 13.6679 17.9437 12.7115C17.9859 11.7515 17.9965 11.4456 17.9965 9.00176C17.9965 6.55792 17.9929 6.25203 17.9507 5.29205ZM16.3298 12.6411C16.2911 13.5202 16.1434 13.9949 16.0203 14.3114C15.7179 15.0956 15.0955 15.7179 14.3114 16.0204C13.9949 16.1434 13.5168 16.2911 12.6411 16.3297C11.6917 16.372 11.407 16.3824 9.00531 16.3824C6.60365 16.3824 6.31534 16.372 5.36937 16.3297C4.4903 16.2911 4.01559 16.1434 3.69913 16.0204C3.3089 15.8761 2.9537 15.6476 2.66539 15.3487C2.3665 15.0568 2.13794 14.7052 1.99372 14.315C1.87065 13.9985 1.72299 13.5202 1.68439 12.6447C1.64209 11.6953 1.63165 11.4104 1.63165 9.00876C1.63165 6.60709 1.64209 6.31878 1.68439 5.37295C1.72299 4.49387 1.87065 4.01917 1.99372 3.7027C2.13794 3.31234 2.3665 2.95727 2.66896 2.66883C2.9607 2.36994 3.31233 2.14138 3.7027 1.99729C4.01917 1.87422 4.49744 1.72656 5.37294 1.68783C6.32235 1.64566 6.60722 1.63508 9.00875 1.63508C11.414 1.63508 11.6987 1.64566 12.6447 1.68783C13.5238 1.72656 13.9985 1.87422 14.3149 1.99729C14.7052 2.14138 15.0604 2.36994 15.3487 2.66883C15.6476 2.96071 15.8761 3.31234 16.0203 3.7027C16.1434 4.01917 16.2911 4.49731 16.3298 5.37295C16.372 6.32236 16.3826 6.60709 16.3826 9.00876C16.3826 11.4104 16.372 11.6917 16.3298 12.6411Z" fill="white"/>
<path d="M9.00188 4.37695C6.44912 4.37695 4.37793 6.44801 4.37793 9.0009C4.37793 11.5538 6.44912 13.6249 9.00188 13.6249C11.5548 13.6249 13.6258 11.5538 13.6258 9.0009C13.6258 6.44801 11.5548 4.37695 9.00188 4.37695ZM9.00188 12.0003C7.34578 12.0003 6.00244 10.6571 6.00244 9.0009C6.00244 7.34467 7.34578 6.00146 9.00188 6.00146C10.6581 6.00146 12.0013 7.34467 12.0013 9.0009C12.0013 10.6571 10.6581 12.0003 9.00188 12.0003Z" fill="white"/>
<path d="M14.8876 4.19472C14.8876 4.79085 14.4043 5.2742 13.808 5.2742C13.2119 5.2742 12.7285 4.79085 12.7285 4.19472C12.7285 3.59845 13.2119 3.11523 13.808 3.11523C14.4043 3.11523 14.8876 3.59845 14.8876 4.19472Z" fill="white"/>
</svg>
