<svg width="19" height="18" viewBox="0 0 19 18" fill="none" xmlns="http://www.w3.org/2000/svg">
<path d="M18.9921 17.9992V17.9984H18.9966V11.3969C18.9966 8.16744 18.3013 5.67969 14.5258 5.67969C12.7108 5.67969 11.4928 6.67569 10.9955 7.61994H10.943V5.98119H7.36328V17.9984H11.0908V12.0479C11.0908 10.4812 11.3878 8.96619 13.328 8.96619C15.2398 8.96619 15.2683 10.7542 15.2683 12.1484V17.9992H18.9921Z" fill="white"/>
<path d="M1.29346 5.98242H5.02546V17.9997H1.29346V5.98242Z" fill="white"/>
<path d="M3.15808 0C1.96483 0 0.996582 0.96825 0.996582 2.1615C0.996582 3.35475 1.96483 4.34325 3.15808 4.34325C4.35133 4.34325 5.31958 3.35475 5.31958 2.1615C5.31883 0.96825 4.35058 0 3.15808 0V0Z" fill="white"/>
</svg>
