<svg width="24" height="24" viewBox="0 0 24 24" fill="none" xmlns="http://www.w3.org/2000/svg">
<path d="M8.25 20.25C8.25 20.6642 7.91421 21 7.5 21C7.08579 21 6.75 20.6642 6.75 20.25C6.75 19.8358 7.08579 19.5 7.5 19.5C7.91421 19.5 8.25 19.8358 8.25 20.25Z" fill="#1D2026" stroke="#1D2026" stroke-width="1.5"/>
<path d="M17.25 21.75C18.0784 21.75 18.75 21.0784 18.75 20.25C18.75 19.4216 18.0784 18.75 17.25 18.75C16.4216 18.75 15.75 19.4216 15.75 20.25C15.75 21.0784 16.4216 21.75 17.25 21.75Z" fill="#1D2026"/>
<path d="M3.96429 6.75H20.7857L18.3108 15.4121C18.2213 15.7255 18.0321 16.0012 17.7718 16.1975C17.5116 16.3938 17.1945 16.5 16.8685 16.5H7.88145C7.55549 16.5 7.23839 16.3938 6.97816 16.1975C6.71792 16.0012 6.52872 15.7255 6.43917 15.4121L3.04827 3.54396C3.0035 3.38725 2.90889 3.24939 2.77878 3.15124C2.64866 3.05309 2.49011 3 2.32713 3H0.75" stroke="#1D2026" stroke-width="1.5" stroke-linecap="round" stroke-linejoin="round"/>
</svg>
