<svg width="19" height="18" viewBox="0 0 19 18" fill="none" xmlns="http://www.w3.org/2000/svg">
<g clip-path="url(#clip0_4686_7715)">
<path d="M18.9966 3.73137C18.3272 4.025 17.614 4.21962 16.8703 4.31412C17.6353 3.85737 18.2192 3.13962 18.4937 2.2745C17.7805 2.69975 16.993 3.00013 16.1537 3.16775C15.4765 2.44663 14.5112 2 13.4582 2C11.4152 2 9.77046 3.65825 9.77046 5.69113C9.77046 5.98363 9.79521 6.26487 9.85596 6.53262C6.78808 6.383 4.07346 4.91263 2.24983 2.67275C1.93146 3.22513 1.74471 3.85738 1.74471 4.538C1.74471 5.816 2.40283 6.94887 3.38383 7.60475C2.79096 7.5935 2.20933 7.42138 1.71658 7.15025C1.71658 7.1615 1.71658 7.17613 1.71658 7.19075C1.71658 8.984 2.99571 10.4735 4.67308 10.8166C4.37271 10.8988 4.04533 10.9381 3.70558 10.9381C3.46933 10.9381 3.23083 10.9246 3.00696 10.8751C3.48508 12.3365 4.84183 13.4109 6.45508 13.4457C5.19958 14.4279 3.60546 15.0196 1.87971 15.0196C1.57708 15.0196 1.28683 15.0061 0.996582 14.969C2.63121 16.0231 4.56846 16.625 6.65758 16.625C13.4481 16.625 17.1606 11 17.1606 6.12425C17.1606 5.96112 17.155 5.80363 17.1471 5.64725C17.8795 5.1275 18.4948 4.47837 18.9966 3.73137Z" fill="white"/>
</g>
<defs>
<clipPath id="clip0_4686_7715">
<rect width="18" height="18" fill="white" transform="translate(0.996582)"/>
</clipPath>
</defs>
</svg>
