<svg width="19" height="18" viewBox="0 0 19 18" fill="none" xmlns="http://www.w3.org/2000/svg">
<path fill-rule="evenodd" clip-rule="evenodd" d="M17.0393 3.38548C17.8103 3.59312 18.4182 4.20094 18.6257 4.97204C19.0113 6.38048 18.9965 9.31629 18.9965 9.31629C18.9965 9.31629 18.9965 12.2371 18.6259 13.6457C18.4182 14.4167 17.8104 15.0246 17.0393 15.2321C15.6307 15.6029 9.99654 15.6029 9.99654 15.6029C9.99654 15.6029 4.37706 15.6029 2.95379 15.2174C2.18269 15.0098 1.57487 14.4018 1.36723 13.6309C0.996582 12.2371 0.996582 9.30146 0.996582 9.30146C0.996582 9.30146 0.996582 6.38048 1.36723 4.97204C1.57474 4.20108 2.19752 3.57829 2.95365 3.37079C4.36223 3 9.99641 3 9.99641 3C9.99641 3 15.6307 3 17.0393 3.38548ZM12.8879 9.30154L8.20264 12.0001V6.60303L12.8879 9.30154Z" fill="white"/>
</svg>
